<svg width="57" height="25" viewBox="0 0 57 25" fill="none" xmlns="http://www.w3.org/2000/svg">
<path d="M9.156 24.224C6.67333 24.224 4.68533 23.7573 3.192 22.824C1.69867 21.872 0.952 20.4253 0.952 18.484C0.952 17.4573 1.12933 16.6733 1.484 16.132C1.83867 15.5907 2.36133 15.32 3.052 15.32C3.556 15.32 3.96667 15.4507 4.284 15.712C4.60133 15.9733 4.76 16.3093 4.76 16.72C4.76 17.0933 4.732 17.42 4.676 17.7C4.676 17.7747 4.65733 17.9053 4.62 18.092C4.60133 18.2787 4.592 18.4747 4.592 18.68C4.592 19.52 5.012 20.1453 5.852 20.556C6.71067 20.9667 7.90533 21.172 9.436 21.172C11.0227 21.172 12.264 20.892 13.16 20.332C14.056 19.7533 14.504 18.9507 14.504 17.924C14.504 17.2893 14.2987 16.748 13.888 16.3C13.4773 15.8333 12.964 15.4507 12.348 15.152C11.732 14.8347 10.864 14.452 9.744 14.004C8.30667 13.444 7.13067 12.912 6.216 12.408C5.32 11.904 4.54533 11.2227 3.892 10.364C3.25733 9.48667 2.94 8.404 2.94 7.116C2.94 5.772 3.29467 4.57733 4.004 3.532C4.732 2.48667 5.768 1.67467 7.112 1.096C8.47467 0.517332 10.0707 0.227999 11.9 0.227999C13.2627 0.227999 14.5133 0.433332 15.652 0.843999C16.7907 1.236 17.696 1.84267 18.368 2.664C19.0587 3.48533 19.404 4.49333 19.404 5.688C19.404 6.864 19.2267 7.75067 18.872 8.348C18.5173 8.94533 17.9947 9.244 17.304 9.244C16.8187 9.244 16.408 9.09467 16.072 8.796C15.7547 8.49733 15.596 8.14267 15.596 7.732C15.596 7.37733 15.624 7.05067 15.68 6.752C15.736 6.192 15.764 5.83733 15.764 5.688C15.764 4.904 15.3813 4.30667 14.616 3.896C13.8507 3.48533 12.8987 3.28 11.76 3.28C10.1547 3.28 8.92267 3.57867 8.064 4.176C7.224 4.75467 6.804 5.576 6.804 6.64C6.804 7.34933 7.01867 7.956 7.448 8.46C7.896 8.964 8.44667 9.384 9.1 9.72C9.75333 10.056 10.668 10.4573 11.844 10.924C13.2627 11.5027 14.4013 12.0253 15.26 12.492C16.1187 12.9587 16.8467 13.5933 17.444 14.396C18.06 15.1987 18.368 16.188 18.368 17.364C18.368 19.5667 17.528 21.2653 15.848 22.46C14.1867 23.636 11.956 24.224 9.156 24.224ZM33.2461 17.756C33.4887 17.756 33.6754 17.868 33.8061 18.092C33.9554 18.316 34.0301 18.624 34.0301 19.016C34.0301 19.7627 33.8527 20.3413 33.4981 20.752C32.8074 21.592 31.8274 22.3667 30.5581 23.076C29.3074 23.7853 27.9634 24.14 26.5261 24.14C24.5661 24.14 23.0447 23.608 21.9621 22.544C20.8794 21.48 20.3381 20.024 20.3381 18.176C20.3381 16.888 20.6087 15.6933 21.1501 14.592C21.6914 13.472 22.4381 12.5853 23.3901 11.932C24.3607 11.2787 25.4527 10.952 26.6661 10.952C27.7487 10.952 28.6167 11.2787 29.2701 11.932C29.9234 12.5667 30.2501 13.4347 30.2501 14.536C30.2501 15.824 29.7834 16.9347 28.8501 17.868C27.9354 18.7827 26.3767 19.5107 24.1741 20.052C24.6407 20.9107 25.5274 21.34 26.8341 21.34C27.6741 21.34 28.6261 21.0507 29.6901 20.472C30.7727 19.8747 31.7061 19.1 32.4901 18.148C32.7141 17.8867 32.9661 17.756 33.2461 17.756ZM26.1901 13.696C25.4994 13.696 24.9114 14.0973 24.4261 14.9C23.9594 15.7027 23.7261 16.6733 23.7261 17.812V17.868C24.8274 17.6067 25.6954 17.2147 26.3301 16.692C26.9647 16.1693 27.2821 15.5627 27.2821 14.872C27.2821 14.5173 27.1794 14.2373 26.9741 14.032C26.7874 13.808 26.5261 13.696 26.1901 13.696ZM33.7383 24.14C33.0289 24.14 32.5249 23.7667 32.2263 23.02C31.9463 22.2733 31.8063 21.0787 31.8063 19.436C31.8063 17.0093 32.1516 14.704 32.8423 12.52C33.0103 11.9787 33.2809 11.5867 33.6543 11.344C34.0463 11.0827 34.5876 10.952 35.2783 10.952C35.6516 10.952 35.9129 10.9987 36.0623 11.092C36.2116 11.1853 36.2863 11.3627 36.2863 11.624C36.2863 11.9227 36.1463 12.5947 35.8663 13.64C35.6796 14.3867 35.5303 15.04 35.4183 15.6C35.3063 16.16 35.2129 16.8507 35.1383 17.672C35.7543 16.0667 36.4449 14.76 37.2103 13.752C37.9756 12.744 38.7223 12.0253 39.4503 11.596C40.1969 11.1667 40.8783 10.952 41.4943 10.952C42.7076 10.952 43.3143 11.5587 43.3143 12.772C43.3143 13.5 43.1089 14.816 42.6983 16.72C42.3436 18.344 42.1663 19.4173 42.1663 19.94C42.1663 20.6867 42.4369 21.06 42.9783 21.06C43.3516 21.06 43.7903 20.836 44.2943 20.388C44.8169 19.9213 45.5076 19.1747 46.3663 18.148C46.5903 17.8867 46.8423 17.756 47.1223 17.756C47.3649 17.756 47.5516 17.868 47.6823 18.092C47.8316 18.316 47.9062 18.624 47.9062 19.016C47.9062 19.7627 47.7289 20.3413 47.3743 20.752C46.5716 21.7413 45.7036 22.5533 44.7703 23.188C43.8556 23.8227 42.8103 24.14 41.6343 24.14C40.6823 24.14 39.9636 23.8693 39.4783 23.328C38.9929 22.768 38.7503 21.9653 38.7503 20.92C38.7503 20.3973 38.8809 19.464 39.1423 18.12C39.3849 16.944 39.5063 16.132 39.5063 15.684C39.5063 15.3853 39.4036 15.236 39.1983 15.236C38.9556 15.236 38.6103 15.5533 38.1623 16.188C37.7329 16.804 37.2849 17.6253 36.8183 18.652C36.3703 19.6787 36.0063 20.7613 35.7263 21.9C35.5209 22.7773 35.2783 23.3747 34.9983 23.692C34.7369 23.9907 34.3169 24.14 33.7383 24.14ZM48.5529 24.14C47.6755 24.14 46.9662 23.7853 46.4249 23.076C45.9022 22.348 45.6409 21.3493 45.6409 20.08C45.6409 18.68 45.7342 17.4013 45.9209 16.244C46.1075 15.068 46.4155 13.8267 46.8449 12.52C47.0315 11.96 47.2929 11.5587 47.6289 11.316C47.9649 11.0733 48.4969 10.952 49.2249 10.952C49.6355 10.952 49.9155 11.0173 50.0649 11.148C50.2329 11.2787 50.3169 11.4747 50.3169 11.736C50.3169 11.8853 50.2142 12.3893 50.0089 13.248C49.8222 13.9387 49.6729 14.564 49.5609 15.124C49.1875 17.084 49.0009 18.3907 49.0009 19.044C49.0009 19.436 49.0475 19.716 49.1409 19.884C49.2342 20.0333 49.3835 20.108 49.5889 20.108C49.8689 20.108 50.2235 19.828 50.6529 19.268C51.0822 18.6893 51.5302 17.8307 51.9969 16.692C52.4822 15.5347 52.9395 14.144 53.3689 12.52C53.5182 11.96 53.7422 11.5587 54.0409 11.316C54.3582 11.0733 54.8249 10.952 55.4409 10.952C55.8515 10.952 56.1409 11.064 56.3089 11.288C56.4955 11.4933 56.5889 11.8107 56.5889 12.24C56.5889 12.7067 56.5515 13.2293 56.4769 13.808C56.4022 14.368 56.3182 14.9467 56.2249 15.544C56.0382 16.7387 55.8889 17.8307 55.7769 18.82C55.6649 19.7907 55.6089 20.9013 55.6089 22.152C55.6089 22.8613 55.4595 23.3747 55.1609 23.692C54.8809 23.9907 54.4142 24.14 53.7609 24.14C53.0702 24.14 52.5849 23.9627 52.3049 23.608C52.0435 23.2347 51.9129 22.5253 51.9129 21.48C51.9129 21.2747 51.9315 20.8173 51.9689 20.108C51.6515 21.4147 51.1755 22.4133 50.5409 23.104C49.9249 23.7947 49.2622 24.14 48.5529 24.14Z" fill="black"/>
</svg>
